<mxfile host="65bd71144e">
    <diagram id="sk6paGx4A0O1712qj14Z" name="第 1 页">
        <mxGraphModel dx="678" dy="540" grid="0" gridSize="10" guides="1" tooltips="1" connect="1" arrows="1" fold="1" page="1" pageScale="1" pageWidth="827" pageHeight="1169" math="0" shadow="0">
            <root>
                <mxCell id="0"/>
                <mxCell id="1" parent="0"/>
                <mxCell id="3" value="&lt;h1&gt;计算Profit（后端）- 客户手动&lt;/h1&gt;&lt;p&gt;1. 获取userId，获得所有的product;&lt;/p&gt;&lt;p&gt;2. product有&lt;/p&gt;" style="text;html=1;strokeColor=none;fillColor=none;spacing=5;spacingTop=-20;whiteSpace=wrap;overflow=hidden;rounded=0;" vertex="1" parent="1">
                    <mxGeometry x="13" y="30" width="350" height="160" as="geometry"/>
                </mxCell>
                <mxCell id="4" value="&lt;h1&gt;计算Profit（后端）- 系统自动&lt;/h1&gt;&lt;p&gt;&lt;br&gt;&lt;/p&gt;" style="text;html=1;strokeColor=none;fillColor=none;spacing=5;spacingTop=-20;whiteSpace=wrap;overflow=hidden;rounded=0;" vertex="1" parent="1">
                    <mxGeometry x="348" y="30" width="350" height="160" as="geometry"/>
                </mxCell>
            </root>
        </mxGraphModel>
    </diagram>
</mxfile>